<svg width="98" height="99" viewBox="0 0 98 99" fill="none" xmlns="http://www.w3.org/2000/svg">
<g filter="url(#filter0_d_4736_7862)">
<circle cx="49" cy="49" r="39" fill="#DA7D54"/>
<circle cx="49" cy="49" r="37" stroke="#D07059" stroke-width="4"/>
</g>
<g filter="url(#filter1_d_4736_7862)">
<path d="M25.312 54H21.168V43.216H24.704C25.8347 43.216 26.7253 43.4827 27.376 44.016C28.0267 44.5387 28.352 45.232 28.352 46.096C28.352 46.6933 28.1813 47.216 27.84 47.664C27.5093 48.112 27.0827 48.4 26.56 48.528C27.1467 48.6347 27.6373 48.9067 28.032 49.344C28.4373 49.7813 28.64 50.368 28.64 51.104C28.64 51.9573 28.3467 52.656 27.76 53.2C27.184 53.7333 26.368 54 25.312 54ZM24.576 44.576H22.816V47.888H24.304C25.104 47.888 25.696 47.728 26.08 47.408C26.4747 47.0773 26.672 46.6507 26.672 46.128C26.672 45.6693 26.496 45.296 26.144 45.008C25.8027 44.72 25.28 44.576 24.576 44.576ZM24.768 49.232H22.816V52.64H24.928C26.2827 52.64 26.96 52.08 26.96 50.96C26.96 50.416 26.7733 49.9947 26.4 49.696C26.0373 49.3867 25.4933 49.232 24.768 49.232ZM38.5929 49.872C38.5929 51.2693 38.2302 52.3307 37.5049 53.056C36.7795 53.7813 35.7769 54.144 34.4969 54.144C33.2382 54.144 32.2462 53.792 31.5209 53.088C30.7955 52.3733 30.4329 51.344 30.4329 50V43.216H32.0809V49.984C32.0809 50.9013 32.2995 51.5733 32.7369 52C33.1849 52.416 33.7715 52.624 34.4969 52.624C36.1289 52.624 36.9449 51.7173 36.9449 49.904V43.216H38.5929V49.872ZM47.3824 44.592H44.5504V54H42.9024V44.592H40.0864V43.216H47.3824V44.592ZM55.3824 44.592H52.5504V54H50.9024V44.592H48.0864V43.216H55.3824V44.592ZM65.0464 44.528C65.9317 45.5307 66.3744 46.8747 66.3744 48.56C66.3744 50.2453 65.9264 51.5947 65.0304 52.608C64.145 53.6213 62.945 54.128 61.4304 54.128C59.9264 54.128 58.721 53.6213 57.8144 52.608C56.9184 51.5947 56.4704 50.2453 56.4704 48.56C56.4704 46.8853 56.9184 45.5413 57.8144 44.528C58.7104 43.5147 59.9104 43.008 61.4144 43.008C62.9504 43.008 64.161 43.5147 65.0464 44.528ZM59.0464 45.632C58.481 46.3467 58.1984 47.3227 58.1984 48.56C58.1984 49.7973 58.4917 50.7787 59.0784 51.504C59.665 52.2293 60.449 52.592 61.4304 52.592C62.4437 52.592 63.233 52.2347 63.7984 51.52C64.3637 50.8053 64.6464 49.8187 64.6464 48.56C64.6464 47.312 64.3584 46.3307 63.7824 45.616C63.217 44.9013 62.4277 44.544 61.4144 44.544C60.4117 44.544 59.6224 44.9067 59.0464 45.632ZM69.9254 54H68.2774V43.216H70.2294L72.8854 47.728C73.376 48.5707 73.8187 49.3493 74.2134 50.064C74.6187 50.7787 74.896 51.28 75.0454 51.568L75.2694 52.016C75.2054 51.0453 75.1734 49.6213 75.1734 47.744V43.216H76.8214V54H74.8694L72.1974 49.504C71.7174 48.6933 71.2747 47.9307 70.8694 47.216C70.4747 46.4907 70.1974 45.968 70.0374 45.648L69.7974 45.184C69.8827 46.2507 69.9254 47.6853 69.9254 49.488V54Z" fill="#ECECEC"/>
</g>
<defs>
<filter id="filter0_d_4736_7862" x="2" y="10" width="86" height="89" filterUnits="userSpaceOnUse" color-interpolation-filters="sRGB">
<feFlood flood-opacity="0" result="BackgroundImageFix"/>
<feColorMatrix in="SourceAlpha" type="matrix" values="0 0 0 0 0 0 0 0 0 0 0 0 0 0 0 0 0 0 127 0" result="hardAlpha"/>
<feOffset dx="-4" dy="7"/>
<feGaussianBlur stdDeviation="2"/>
<feComposite in2="hardAlpha" operator="out"/>
<feColorMatrix type="matrix" values="0 0 0 0 0.701961 0 0 0 0 0.639216 0 0 0 0 0.580392 0 0 0 1 0"/>
<feBlend mode="normal" in2="BackgroundImageFix" result="effect1_dropShadow_4736_7862"/>
<feBlend mode="normal" in="SourceGraphic" in2="effect1_dropShadow_4736_7862" result="shape"/>
</filter>
<filter id="filter1_d_4736_7862" x="13.168" y="43.0078" width="63.6533" height="19.1362" filterUnits="userSpaceOnUse" color-interpolation-filters="sRGB">
<feFlood flood-opacity="0" result="BackgroundImageFix"/>
<feColorMatrix in="SourceAlpha" type="matrix" values="0 0 0 0 0 0 0 0 0 0 0 0 0 0 0 0 0 0 127 0" result="hardAlpha"/>
<feOffset dx="-4" dy="4"/>
<feGaussianBlur stdDeviation="2"/>
<feComposite in2="hardAlpha" operator="out"/>
<feColorMatrix type="matrix" values="0 0 0 0 0 0 0 0 0 0 0 0 0 0 0 0 0 0 0.25 0"/>
<feBlend mode="normal" in2="BackgroundImageFix" result="effect1_dropShadow_4736_7862"/>
<feBlend mode="normal" in="SourceGraphic" in2="effect1_dropShadow_4736_7862" result="shape"/>
</filter>
</defs>
</svg>
