<svg width="96" height="44" viewBox="0 0 96 44" fill="none" xmlns="http://www.w3.org/2000/svg">
<g filter="url(#filter0_d_4851_9070)">
<rect x="4" width="88" height="36" rx="8" fill="#6CA9AE" shape-rendering="crispEdges"/>
<rect x="5" y="1" width="86" height="34" rx="7" stroke="#45979E" stroke-width="2" shape-rendering="crispEdges"/>
<path d="M29.312 23H25.168V12.216H28.704C29.8347 12.216 30.7253 12.4827 31.376 13.016C32.0267 13.5387 32.352 14.232 32.352 15.096C32.352 15.6933 32.1813 16.216 31.84 16.664C31.5093 17.112 31.0827 17.4 30.56 17.528C31.1467 17.6347 31.6373 17.9067 32.032 18.344C32.4373 18.7813 32.64 19.368 32.64 20.104C32.64 20.9573 32.3467 21.656 31.76 22.2C31.184 22.7333 30.368 23 29.312 23ZM28.576 13.576H26.816V16.888H28.304C29.104 16.888 29.696 16.728 30.08 16.408C30.4747 16.0773 30.672 15.6507 30.672 15.128C30.672 14.6693 30.496 14.296 30.144 14.008C29.8027 13.72 29.28 13.576 28.576 13.576ZM28.768 18.232H26.816V21.64H28.928C30.2827 21.64 30.96 21.08 30.96 19.96C30.96 19.416 30.7733 18.9947 30.4 18.696C30.0373 18.3867 29.4933 18.232 28.768 18.232ZM41.0089 23H39.4409V21.608C39.0142 22.6 38.1715 23.096 36.9129 23.096C36.1129 23.096 35.4782 22.8613 35.0089 22.392C34.5395 21.912 34.3049 21.256 34.3049 20.424V14.888H35.8889V20.04C35.8889 20.5947 36.0222 21.0213 36.2889 21.32C36.5662 21.608 36.9449 21.752 37.4249 21.752C38.0329 21.752 38.5182 21.5387 38.8809 21.112C39.2542 20.6853 39.4409 20.0827 39.4409 19.304V14.888H41.0089V23ZM47.4694 22.792C47.1174 22.984 46.6854 23.08 46.1734 23.08C44.4987 23.08 43.6614 22.232 43.6614 20.536V16.104H42.3974V14.888H43.6614V12.904H45.2454V14.888H47.3734V16.104H45.2454V20.568C45.2454 21.3467 45.6187 21.736 46.3654 21.736C46.8027 21.736 47.1707 21.6187 47.4694 21.384V22.792ZM53.4538 22.792C53.1018 22.984 52.6698 23.08 52.1578 23.08C50.4831 23.08 49.6458 22.232 49.6458 20.536V16.104H48.3818V14.888H49.6458V12.904H51.2298V14.888H53.3578V16.104H51.2298V20.568C51.2298 21.3467 51.6031 21.736 52.3498 21.736C52.7871 21.736 53.1551 21.6187 53.4538 21.384V22.792ZM61.4381 15.96C62.1101 16.7387 62.4461 17.736 62.4461 18.952C62.4461 20.168 62.0995 21.1707 61.4061 21.96C60.7235 22.7493 59.7795 23.144 58.5741 23.144C57.3795 23.144 56.4408 22.7547 55.7581 21.976C55.0755 21.1973 54.7341 20.2107 54.7341 19.016C54.7341 17.8 55.0861 16.792 55.7901 15.992C56.4941 15.1813 57.4221 14.776 58.5741 14.776C59.8115 14.776 60.7661 15.1707 61.4381 15.96ZM56.3661 18.968C56.3661 19.768 56.5635 20.4453 56.9581 21C57.3528 21.544 57.8915 21.816 58.5741 21.816C59.2995 21.816 59.8488 21.5493 60.2221 21.016C60.6061 20.4827 60.7981 19.8053 60.7981 18.984C60.7981 18.1413 60.6168 17.4533 60.2541 16.92C59.8915 16.376 59.3261 16.104 58.5581 16.104C57.8648 16.104 57.3261 16.3813 56.9421 16.936C56.5581 17.48 56.3661 18.1573 56.3661 18.968ZM70.9174 23H69.3494V17.88C69.3494 17.3147 69.2054 16.8827 68.9174 16.584C68.64 16.2853 68.2667 16.136 67.7974 16.136C67.2427 16.136 66.768 16.3547 66.3734 16.792C65.9787 17.2187 65.7814 17.8213 65.7814 18.6V23H64.2134V14.888H65.7814V16.28C66.2614 15.2773 67.104 14.776 68.3094 14.776C69.1094 14.776 69.744 15.0213 70.2134 15.512C70.6827 16.0027 70.9174 16.6693 70.9174 17.512V23Z" fill="#ECECEC"/>
</g>
<defs>
<filter id="filter0_d_4851_9070" x="0" y="0" width="96" height="44" filterUnits="userSpaceOnUse" color-interpolation-filters="sRGB">
<feFlood flood-opacity="0" result="BackgroundImageFix"/>
<feColorMatrix in="SourceAlpha" type="matrix" values="0 0 0 0 0 0 0 0 0 0 0 0 0 0 0 0 0 0 127 0" result="hardAlpha"/>
<feOffset dy="4"/>
<feGaussianBlur stdDeviation="2"/>
<feComposite in2="hardAlpha" operator="out"/>
<feColorMatrix type="matrix" values="0 0 0 0 0 0 0 0 0 0 0 0 0 0 0 0 0 0 0.25 0"/>
<feBlend mode="normal" in2="BackgroundImageFix" result="effect1_dropShadow_4851_9070"/>
<feBlend mode="normal" in="SourceGraphic" in2="effect1_dropShadow_4851_9070" result="shape"/>
</filter>
</defs>
</svg>
