<svg width="94" height="73" viewBox="0 0 94 73" fill="none" xmlns="http://www.w3.org/2000/svg">
<path d="M84.0882 68C87.2232 61.997 89 55.1433 89 47.866C89 24.1918 70.196 5 47 5C23.804 5 5 24.1918 5 47.866C5 55.1433 6.77681 61.997 9.91182 68" stroke="#2F3A68" stroke-width="6" stroke-linecap="round"/>
<path d="M47.9085 69.564C47.9085 70.3387 47.6098 70.9593 47.0125 71.426C46.4152 71.8927 45.6592 72.126 44.7445 72.126C43.8485 72.126 43.1112 71.902 42.5325 71.454C41.9538 70.9967 41.6645 70.39 41.6645 69.634C41.6645 68.5513 42.1825 67.8093 43.2185 67.408C42.7798 67.2213 42.4345 66.9507 42.1825 66.596C41.9398 66.2413 41.8185 65.826 41.8185 65.35C41.8185 64.5287 42.1032 63.8847 42.6725 63.418C43.2418 62.9513 43.9325 62.718 44.7445 62.718C45.5845 62.718 46.2892 62.9467 46.8585 63.404C47.4278 63.852 47.7125 64.5053 47.7125 65.364C47.7125 66.288 47.2552 66.9647 46.3405 67.394C47.3858 67.7487 47.9085 68.472 47.9085 69.564ZM43.0645 69.578C43.0645 69.97 43.2092 70.2967 43.4985 70.558C43.7878 70.8193 44.2078 70.95 44.7585 70.95C45.3278 70.95 45.7618 70.81 46.0605 70.53C46.3685 70.25 46.5225 69.9047 46.5225 69.494C46.5225 69.0833 46.3732 68.738 46.0745 68.458C45.7758 68.178 45.3372 68.038 44.7585 68.038C44.1985 68.0473 43.7738 68.2013 43.4845 68.5C43.2045 68.7893 43.0645 69.1487 43.0645 69.578ZM43.2185 65.336C43.2185 65.812 43.3632 66.176 43.6525 66.428C43.9512 66.6707 44.3338 66.792 44.8005 66.792C45.2392 66.792 45.5985 66.666 45.8785 66.414C46.1678 66.1527 46.3125 65.7887 46.3125 65.322C46.3125 64.9113 46.1818 64.5707 45.9205 64.3C45.6685 64.0293 45.2765 63.894 44.7445 63.894C44.2685 63.894 43.8952 64.034 43.6245 64.314C43.3538 64.594 43.2185 64.9347 43.2185 65.336ZM51.0597 72H49.5897L53.3277 64.034H48.7497V62.844H54.7837V64.034L51.0597 72Z" fill="#6CA9AE"/>
<line x1="18.4641" y1="58.8667" x2="14.2696" y2="60.3934" stroke="#081527" stroke-width="2"/>
<line x1="80.2722" y1="60.3933" x2="76.0776" y2="58.8666" stroke="#081527" stroke-width="2"/>
<path d="M9.9372 68C6.78599 61.997 5 55.1433 5 47.866C5 24.1918 23.9012 5 47.217 5C68.4694 5 86.0539 20.9451 89 41.6959" stroke="#6CA9AE" stroke-width="9" stroke-linecap="round"/>
<circle cx="47.6414" cy="47.621" r="4.46373" transform="rotate(82.3463 47.6414 47.621)" fill="#2F3A68"/>
<path d="M48.3599 48.8756C47.5915 49.0458 46.8414 48.5228 46.7366 47.7428C46.6383 47.0117 47.1461 46.3486 47.8574 46.2364L48.0031 46.2207L63.8821 45.4378L48.3599 48.8756Z" fill="#081527" stroke="#081527" stroke-width="2"/>
<circle cx="48.2735" cy="47.536" r="0.637676" transform="rotate(82.3463 48.2735 47.536)" fill="#ECECEC"/>
<line x1="29.6477" y1="18.114" x2="30.9231" y2="20.027" stroke="#081527"/>
<line x1="63.2952" y1="17.5675" x2="61.8957" y2="19.3917" stroke="#081527"/>
<line x1="79.4361" y1="42.9247" x2="77.1922" y2="43.4259" stroke="#081527"/>
<line x1="15.5092" y1="43.4043" x2="13.2278" y2="43.1193" stroke="#081527"/>
<line x1="48" y1="11" x2="48" y2="16" stroke="#081527" stroke-width="2"/>
<line x1="18.9504" y1="27.1275" x2="22.651" y2="29.6236" stroke="#081527" stroke-width="2"/>
<line x1="70.306" y1="28.0635" x2="74.4447" y2="26.3914" stroke="#081527" stroke-width="2"/>
</svg>
