<svg width="91" height="71" viewBox="0 0 91 71" fill="none" xmlns="http://www.w3.org/2000/svg">
<path d="M83.0882 66C86.2232 59.997 88 53.1433 88 45.866C88 22.1918 69.196 3 46 3C22.804 3 4 22.1918 4 45.866C4 53.1433 5.77681 59.997 8.91182 66" stroke="#2F3A68" stroke-width="6" stroke-linecap="round"/>
<path d="M46.3495 70H40.4835V68.866C41.6595 68.0073 42.6488 67.1207 43.4515 66.206C44.2635 65.282 44.6695 64.442 44.6695 63.686C44.6695 63.154 44.5155 62.748 44.2075 62.468C43.8995 62.1787 43.4748 62.034 42.9335 62.034C42.1868 62.034 41.4542 62.314 40.7355 62.874V61.516C41.4075 61.0027 42.2055 60.746 43.1295 60.746C43.9882 60.746 44.6975 60.9887 45.2575 61.474C45.8175 61.95 46.0975 62.6313 46.0975 63.518C46.0975 65.1607 44.8562 66.9247 42.3735 68.81H46.3495V70ZM53.4488 67.088C53.4488 68.0027 53.1455 68.7353 52.5388 69.286C51.9415 69.8273 51.1061 70.098 50.0328 70.098C49.0715 70.098 48.2781 69.9393 47.6528 69.622V68.292C48.2501 68.656 48.9688 68.838 49.8088 68.838C51.2835 68.838 52.0208 68.2407 52.0208 67.046C52.0208 66.57 51.8528 66.2013 51.5168 65.94C51.1901 65.6693 50.7468 65.534 50.1868 65.534C49.4775 65.534 48.7775 65.6973 48.0868 66.024V60.83H52.8328V62.02H49.4448V64.428C49.7901 64.3533 50.1075 64.316 50.3968 64.316C51.3488 64.316 52.0955 64.568 52.6368 65.072C53.1781 65.5667 53.4488 66.2387 53.4488 67.088Z" fill="#DA7D54"/>
<line x1="17.4641" y1="56.8667" x2="13.2696" y2="58.3934" stroke="#081527" stroke-width="2"/>
<line x1="79.2722" y1="58.3933" x2="75.0776" y2="56.8666" stroke="#081527" stroke-width="2"/>
<path d="M8.9372 66C5.78599 59.997 4 53.1433 4 45.866C4 36.1501 7.18348 27.1892 12.5491 20" stroke="#DA7D54" stroke-width="8" stroke-linecap="round"/>
<circle cx="46.6415" cy="45.6213" r="4.46373" transform="rotate(82.3463 46.6415 45.6213)" fill="#ECECEC"/>
<path d="M46.9207 43.8941C47.6009 44.2898 47.7978 45.1828 47.3462 45.8273C46.9228 46.4313 46.0999 46.5746 45.5009 46.1749L45.3832 46.0876L33.179 35.8988L46.9207 43.8941Z" fill="#081527" stroke="#081527" stroke-width="2"/>
<circle cx="46.076" cy="44.938" r="0.637676" transform="rotate(-54.9736 46.076 44.938)" fill="#ECECEC"/>
<line x1="28.6477" y1="16.114" x2="29.9231" y2="18.027" stroke="#081527"/>
<line x1="62.2952" y1="15.5675" x2="60.8957" y2="17.3917" stroke="#081527"/>
<line x1="78.4361" y1="40.9247" x2="76.1922" y2="41.4259" stroke="#081527"/>
<line x1="14.5092" y1="41.4043" x2="12.2278" y2="41.1193" stroke="#081527"/>
<line x1="47" y1="9" x2="47" y2="14" stroke="#081527" stroke-width="2"/>
<line x1="17.9504" y1="25.1275" x2="21.651" y2="27.6236" stroke="#081527" stroke-width="2"/>
<line x1="69.306" y1="26.0635" x2="73.4447" y2="24.3914" stroke="#081527" stroke-width="2"/>
</svg>
