<svg width="48" height="84" viewBox="0 0 48 84" fill="none" xmlns="http://www.w3.org/2000/svg">
<path d="M18.1143 1H29.8857C30.8228 1 31.4292 1.00231 31.877 1.06055C32.1922 1.10159 32.3467 1.16152 32.4355 1.21875L32.5059 1.27441L32.5439 1.31152C32.6144 1.3858 32.7031 1.52065 32.7578 1.94141C32.816 2.38917 32.8184 2.99555 32.8184 3.93262V4.31836C32.8184 5.02078 32.8168 5.62578 32.8682 6.11621C32.9147 6.56064 33.0114 6.99797 33.2451 7.40332L33.3535 7.5752C33.5067 7.79579 33.6891 7.99432 33.8945 8.16602L34.1074 8.32812C34.5597 8.64216 35.0584 8.76124 35.5664 8.81445C36.0568 8.86581 36.661 8.86426 37.3633 8.86426C39.5565 8.86426 41.1243 8.86595 42.3389 8.99316C43.3859 9.10285 44.0829 9.29881 44.627 9.61426L44.8516 9.75684C45.2804 10.0546 45.6596 10.4177 45.9756 10.832L46.1074 11.0127C46.5076 11.5892 46.7457 12.3287 46.8711 13.5254C46.9983 14.74 47 16.3078 47 18.501V72C47 74.8566 46.9977 76.8985 46.7891 78.4502C46.5971 79.8779 46.2449 80.7583 45.6562 81.4082L45.5352 81.5352C44.8732 82.1971 43.9732 82.5843 42.4502 82.7891C40.8985 82.9977 38.8566 83 36 83H12C9.1434 83 7.10155 82.9977 5.5498 82.7891C4.12206 82.5971 3.24167 82.2449 2.5918 81.6562L2.46484 81.5352C1.80293 80.8732 1.4157 79.9732 1.21094 78.4502C1.00233 76.8985 1 74.8566 1 72V18.501C1 16.3078 1.00169 14.74 1.12891 13.5254C1.23859 12.4784 1.43455 11.7813 1.75 11.2373L1.89258 11.0127C2.19031 10.5839 2.55342 10.2047 2.96777 9.88867L3.14844 9.75684C3.7249 9.35665 4.46443 9.11853 5.66113 8.99316C6.8757 8.86595 8.44355 8.86426 10.6367 8.86426C11.339 8.86426 11.9433 8.86581 12.4336 8.81445C12.878 8.76791 13.3154 8.67113 13.7207 8.4375L13.8926 8.32812C14.1131 8.17502 14.3118 7.99344 14.4834 7.78809L14.6465 7.5752C14.9604 7.12301 15.0786 6.62411 15.1318 6.11621C15.1832 5.62578 15.1816 5.02078 15.1816 4.31836V3.93262C15.1816 2.99555 15.184 2.38917 15.2422 1.94141C15.2832 1.62624 15.3432 1.47172 15.4004 1.38281L15.4561 1.31152L15.4941 1.27441C15.5684 1.20402 15.7027 1.11527 16.123 1.06055C16.5708 1.00231 17.1772 1 18.1143 1Z" fill="#ECECEC" stroke="#2F3A68" stroke-width="2"/>
<path d="M45.5 67.5V77C45.5 79.4853 43.4853 81.5 41 81.5H7C4.51472 81.5 2.5 79.4853 2.5 77V67.5H45.5Z" fill="#6CA9AE" stroke="#ECECEC"/>
<path d="M2.5 25.5V15C2.5 12.5147 4.51472 10.5 7 10.5L41 10.5C43.4853 10.5 45.5 12.5147 45.5 15V25.5L2.5 25.5Z" fill="#ECECEC" stroke="#ECECEC"/>
<rect x="2.5" y="52.5" width="43" height="15" fill="#6CA9AE" stroke="#ECECEC"/>
<rect x="2.5" y="39.5" width="43" height="13" fill="#6CA9AE" stroke="#ECECEC"/>
<rect x="2.5" y="25.5" width="43" height="14" fill="#6CA9AE" stroke="#ECECEC"/>
<path d="M22.79 47.62C22.79 48.376 22.496 48.9827 21.908 49.44C21.32 49.888 20.5827 50.112 19.696 50.112C18.8467 50.112 18.1373 49.8927 17.568 49.454C16.9987 49.0153 16.714 48.4273 16.714 47.69C16.714 47.1393 16.8587 46.6727 17.148 46.29C17.4467 45.898 17.8527 45.6133 18.366 45.436C17.3673 45.0533 16.868 44.3487 16.868 43.322C16.868 42.51 17.148 41.88 17.708 41.432C18.268 40.9747 18.9307 40.746 19.696 40.746C20.4893 40.746 21.166 40.97 21.726 41.418C22.286 41.8567 22.566 42.496 22.566 43.336C22.566 43.812 22.4353 44.232 22.174 44.596C21.9127 44.9507 21.5533 45.2213 21.096 45.408C22.2253 45.7533 22.79 46.4907 22.79 47.62ZM17.834 47.634C17.834 48.0633 17.9973 48.4227 18.324 48.712C18.6507 48.992 19.1127 49.132 19.71 49.132C20.3353 49.132 20.816 48.978 21.152 48.67C21.488 48.362 21.656 47.9793 21.656 47.522C21.656 47.074 21.4927 46.696 21.166 46.388C20.8393 46.08 20.354 45.9307 19.71 45.94C19.0847 45.9493 18.6133 46.1173 18.296 46.444C17.988 46.7613 17.834 47.158 17.834 47.634ZM17.988 43.308C17.988 43.84 18.1513 44.2413 18.478 44.512C18.814 44.7827 19.2387 44.918 19.752 44.918C20.2467 44.918 20.6527 44.778 20.97 44.498C21.2873 44.2087 21.446 43.8073 21.446 43.294C21.446 42.846 21.2967 42.4727 20.998 42.174C20.6993 41.8753 20.2653 41.726 19.696 41.726C19.1733 41.726 18.758 41.88 18.45 42.188C18.142 42.496 17.988 42.8693 17.988 43.308ZM30.5199 45.394C30.5199 46.822 30.2399 47.9653 29.6799 48.824C29.1199 49.6827 28.3219 50.112 27.2859 50.112C26.3245 50.112 25.5545 49.6827 24.9759 48.824C24.3972 47.9653 24.1079 46.822 24.1079 45.394C24.1079 43.9567 24.3972 42.8227 24.9759 41.992C25.5639 41.152 26.3339 40.732 27.2859 40.732C28.2752 40.732 29.0592 41.152 29.6379 41.992C30.2259 42.8227 30.5199 43.9567 30.5199 45.394ZM25.8439 42.734C25.4425 43.3593 25.2419 44.246 25.2419 45.394C25.2419 46.542 25.4379 47.4427 25.8299 48.096C26.2219 48.74 26.7072 49.062 27.2859 49.062C27.9299 49.062 28.4385 48.7447 28.8119 48.11C29.1945 47.4753 29.3859 46.57 29.3859 45.394C29.3859 44.2273 29.1852 43.336 28.7839 42.72C28.3919 42.0947 27.8925 41.782 27.2859 41.782C26.7259 41.782 26.2452 42.0993 25.8439 42.734Z" fill="#ECECEC"/>
</svg>
